<svg width="240" height="60" xmlns="http://www.w3.org/2000/svg">
 <defs>
  <clipPath id="clip1">
   <path id="svg_1" d="m5.75,3.25l74.25,0l0,74.25l-74.25,0l0,-74.25zm0,0"/>
  </clipPath>
 </defs>
 <g class="currentLayer">
  <title>Layer 1</title>
  <g stroke="null" id="surface1">
   <path stroke="null" fill-rule="nonzero" fill="rgb(0%,0%,0%)" id="svg_2" d="m85.8001,23.56863c0.23659,0.24245 0.35628,0.66047 0.35628,1.25127c0,0.69392 -0.17536,1.14817 -0.52051,1.36833c-0.34515,0.21737 -1.03267,0.32884 -2.05977,0.32884c-0.2533,0 -2.1739,-0.0418 -5.76459,-0.12819l-0.22825,2.78681c2.02359,0.43753 4.02213,0.65768 5.99284,0.65768c2.42719,0 4.11398,-0.35113 5.05758,-1.05062c0.9436,-0.69949 1.41401,-2.0288 1.41401,-3.98793c0,-1.31537 -0.27557,-2.38272 -0.83226,-3.20204c-0.5567,-0.81932 -1.50865,-1.46308 -2.85864,-1.93683l-3.31234,-1.13981c-0.707,-0.23409 -1.18854,-0.47933 -1.43906,-0.73293c-0.25329,-0.2536 -0.38133,-0.66605 -0.38133,-1.24013c0,-0.70785 0.16979,-1.15095 0.50659,-1.32931c0.3368,-0.17835 1.0104,-0.26474 2.02359,-0.26474c2.1739,0 3.99429,0.02508 5.46119,0.07524l0.25329,-2.63354c-1.60328,-0.45425 -3.51553,-0.68276 -5.74232,-0.68276c-2.3576,0 -4.00542,0.32605 -4.94067,0.97538c-0.93525,0.64933 -1.40566,1.93683 -1.40566,3.85973c0,1.31537 0.28113,2.37994 0.83504,3.18811c0.5567,0.81096 1.4836,1.45193 2.7807,1.92569l3.51554,1.24013c0.62349,0.20343 1.05215,0.42638 1.28875,0.67162m6.75272,-6.54343l0,12.47933l3.71594,0l0,-8.58337c1.1802,-0.72457 2.09875,-1.08686 2.75565,-1.08686c0.47041,0 0.81278,0.10869 1.02432,0.32885c0.21154,0.22015 0.31732,0.59916 0.31732,1.1398l0,8.20158l3.5879,0l0,-8.5555c0.70979,-0.44032 1.24978,-0.73572 1.61999,-0.88621c0.3702,-0.15327 0.7571,-0.22852 1.16349,-0.22852c0.50381,0 0.84896,0.10869 1.03546,0.32885c0.18371,0.22015 0.27834,0.59916 0.27834,1.1398l0,8.20158l3.71595,0l0,-9.36647c0,-1.13144 -0.29505,-1.99256 -0.88515,-2.58337c-0.59009,-0.5908 -1.45019,-0.8862 -2.5775,-0.8862c-1.5671,0 -3.08409,0.67719 -4.55099,2.02601c-0.45649,-1.34882 -1.52813,-2.02601 -3.21213,-2.02601c-1.5838,0 -3.1676,0.72735 -4.75419,2.17928l-0.25051,-1.82257l-2.98389,0zm27.78469,2.58058c0.7933,0 1.32772,0.10869 1.60607,0.32885c0.27835,0.22016 0.42587,0.64932 0.44258,1.29029l0,0.55736l-4.45079,0c-1.19411,0 -2.12936,0.27868 -2.80575,0.83605c-0.6736,0.55736 -1.0104,1.33209 -1.0104,2.32977l0,1.26521c0,1.13144 0.37855,2.01208 1.13844,2.64468c0.75711,0.63261 1.73411,0.9503 2.93101,0.9503c1.82039,0 3.35409,-0.73571 4.60387,-2.20436l0.37856,1.9006l2.95884,0l0,-8.25453c0,-1.68602 -0.39804,-2.8732 -1.18855,-3.55597c-0.79329,-0.68277 -2.03194,-1.02554 -3.71873,-1.02554c-2.08761,0 -4.25594,0.20343 -6.49664,0.60752l0.3535,2.53321c2.1238,-0.13655 3.87739,-0.20344 5.25799,-0.20344m-1.3138,4.43103l3.36245,0l0,1.74454c-1.06051,0.81097 -2.09875,1.21505 -3.10915,1.21505c-0.977,0 -1.4669,-0.42917 -1.4669,-1.29029l0,-0.47933c0,-0.77752 0.40639,-1.17325 1.2136,-1.18997m18.35705,-7.36832c-1.67009,0 -3.35409,0.72735 -5.05758,2.17928l-0.32845,-1.82257l-2.90874,0l0,12.47933l3.74378,0l0,-8.50534c1.72019,-0.57408 2.99224,-0.86113 3.81894,-0.86113l1.0104,0l0.37855,-3.46957l-0.6569,0zm10.76929,2.86205l0,-2.50534l-3.46265,0l0,-3.49466l-3.71595,0l0,3.49466l-2.20173,0.12541l0,2.37993l2.20173,0l0,6.68277c0,1.13144 0.31175,2.01208 0.93525,2.64468c0.6235,0.63261 1.5003,0.9503 2.6276,0.9503c1.38339,0 2.55524,-0.16999 3.51554,-0.5072l-0.40361,-2.60845l-1.59493,0c-0.50381,0 -0.85731,-0.09196 -1.0605,-0.27589c-0.2032,-0.18672 -0.3034,-0.51556 -0.3034,-0.98932l0,-5.89689l3.46265,0zm19.41755,-7.29029c-1.51421,-0.18672 -4.1279,-0.27868 -7.8355,-0.27868c-1.16349,0 -2.09596,0.32327 -2.79461,0.97259c-0.70144,0.65212 -1.04937,1.53275 -1.04937,2.64747l0,13.9229l3.86904,0l0,-7.34045l6.67478,0l0,-2.8119l-6.67478,0l0,-2.98746c0,-0.45424 0.10298,-0.78309 0.31453,-0.98653c0.21154,-0.20065 0.55948,-0.30376 1.04937,-0.30376l6.24613,0l0.20041,-2.83418zm3.07296,5.92197c-0.96865,0.99767 -1.45297,2.70042 -1.45297,5.11379c0,2.39666 0.48432,4.08825 1.45297,5.07478c0.96865,0.98932 2.62482,1.48258 4.96851,1.48258c2.32699,0 3.97481,-0.49326 4.94346,-1.48258c0.96865,-0.98653 1.45298,-2.67812 1.45298,-5.07478c0,-2.39665 -0.48433,-4.09661 -1.45298,-5.09986c-0.96865,-1.00325 -2.61647,-1.50766 -4.94346,-1.50766c-2.34369,0 -3.99986,0.49884 -4.96851,1.49373m6.942,2.0901c0.3368,0.51556 0.50381,1.5216 0.50381,3.02369c0,1.48537 -0.17258,2.48026 -0.51773,2.98746c-0.34515,0.5072 -0.99927,0.75801 -1.95957,0.75801c-0.9937,0 -1.65895,-0.25081 -1.99575,-0.75801c-0.33959,-0.5072 -0.5066,-1.50209 -0.5066,-2.98746c0,-1.51881 0.16701,-2.53042 0.5066,-3.03762c0.3368,-0.5072 1.00205,-0.75801 1.99575,-0.75801c0.97701,0 1.63391,0.25638 1.97349,0.77194m15.27017,-3.58383c-1.67009,0 -3.35409,0.72735 -5.05758,2.17928l-0.32845,-1.82257l-2.90596,0l0,12.47933l3.741,0l0,-8.50534c1.72019,-0.57408 2.99224,-0.86113 3.81894,-0.86113l1.0104,0l0.37855,-3.46957l-0.6569,0zm2.45225,0.35671l0,12.47933l3.71594,0l0,-8.58337c1.1802,-0.72457 2.09875,-1.08686 2.75843,-1.08686c0.47041,0 0.81278,0.10869 1.02432,0.32885c0.20876,0.22015 0.31453,0.59916 0.31453,1.1398l0,8.20158l3.59069,0l0,-8.5555c0.70701,-0.44032 1.247,-0.73572 1.61721,-0.88621c0.3702,-0.15327 0.75989,-0.22852 1.16349,-0.22852c0.50659,0 0.85175,0.10869 1.03824,0.32885c0.18371,0.22015 0.27556,0.59916 0.27556,1.1398l0,8.20158l3.71873,0l0,-9.36647c0,-1.13144 -0.29505,-1.99256 -0.88514,-2.58337c-0.5901,-0.5908 -1.4502,-0.8862 -2.58029,-0.8862c-1.5671,0 -3.0841,0.67719 -4.55099,2.02601c-0.45371,-1.34882 -1.52535,-2.02601 -3.20935,-2.02601c-1.58659,0 -3.17039,0.72735 -4.75419,2.17928l-0.25329,-1.82257l-2.98389,0zm28.11593,7.95913c0.16979,0.0418 0.2867,0.07245 0.3535,0.08917c0.0668,0.01672 0.16144,0.04738 0.27835,0.08918c0.1169,0.0418 0.19762,0.07525 0.24216,0.10033c0.04175,0.02508 0.1002,0.05852 0.17536,0.10032c0.07515,0.04459 0.13082,0.08082 0.16422,0.11426l0.10299,0.13934c0.0334,0.06131 0.05289,0.12262 0.06124,0.18951c0.00835,0.06967 0.01392,0.14491 0.01392,0.22851c0,0.40688 -0.20041,0.66326 -0.59567,0.77195c-0.39525,0.11147 -1.24143,0.16442 -2.54131,0.16442c-2.27411,0 -3.71595,-0.01672 -4.32275,-0.05016l-0.22824,2.4301c1.70349,0.28704 3.56563,0.43195 5.58922,0.43195c2.0904,0 3.56286,-0.26753 4.42295,-0.79981c0.8601,-0.5295 1.29154,-1.53832 1.29154,-3.02369c0,-1.04505 -0.2366,-1.83372 -0.70979,-2.366c-0.47041,-0.53228 -1.2637,-0.95866 -2.37431,-1.27915l-3.18708,-0.86112c-0.08351,-0.01672 -0.20598,-0.04738 -0.36742,-0.08918c-0.15866,-0.0418 -0.27,-0.06967 -0.32845,-0.08639c-0.05846,-0.01672 -0.14196,-0.04738 -0.2533,-0.08918c-0.10856,-0.0418 -0.18371,-0.07246 -0.22546,-0.08918c-0.04454,-0.01672 -0.09742,-0.04737 -0.16423,-0.08917c-0.06958,-0.04181 -0.11412,-0.08082 -0.13917,-0.11426l-0.08907,-0.13934c-0.0334,-0.05853 -0.05567,-0.12262 -0.06402,-0.18951c-0.00835,-0.06688 -0.01392,-0.14212 -0.01392,-0.22852c0,-0.21737 0.02784,-0.38179 0.07794,-0.49326c0.0501,-0.10869 0.18927,-0.1895 0.41752,-0.23967c0.22824,-0.05016 0.45371,-0.08081 0.68195,-0.08917c0.22825,-0.00836 0.63464,-0.01115 1.22473,-0.01115c1.07999,0 2.68049,0.01672 4.80429,0.05016l0.2533,-2.40501c-1.6005,-0.28705 -3.52389,-0.44589 -5.76459,-0.48212c-1.9373,0 -3.30677,0.27032 -4.10842,0.81096c-0.80164,0.54064 -1.19968,1.46029 -1.19968,2.75894c0,1.03112 0.21711,1.83651 0.6569,2.41895c0.43701,0.58244 1.2303,1.04227 2.3771,1.37947l3.10914,0.83326c0.08351,0.03623 0.21155,0.07245 0.37856,0.11426m14.86656,-3.15189l-7.53488,0l0,2.45518l7.53488,0l0,-2.45518zm0,0"/>
   <path stroke="null" fill-rule="nonzero" fill="rgb(0%,0%,0%)" id="svg_3" d="m77.48306,43.2435c0,3.45843 0.54278,5.83558 1.63112,7.12587c1.08556,1.2903 3.02842,1.93684 5.82582,1.93684c2.80018,0 4.74583,-0.64654 5.84253,-1.93684c1.0939,-1.29029 1.64225,-3.66744 1.64225,-7.12587c0,-3.45843 -0.54835,-5.83558 -1.64225,-7.12587c-1.0967,-1.29029 -3.04235,-1.93683 -5.84253,-1.93683c-2.7974,0 -4.74026,0.64654 -5.82582,1.93683c-1.08834,1.29029 -1.63112,3.66744 -1.63112,7.12587m10.87227,0c0,2.31305 -0.24216,3.88203 -0.72092,4.70692c-0.48154,0.82768 -1.37782,1.24013 -2.69441,1.24013c-1.3138,0 -2.21008,-0.41245 -2.69162,-1.24013c-0.47876,-0.82489 -0.72092,-2.39387 -0.72092,-4.70692c0,-2.31305 0.24216,-3.88202 0.72092,-4.70971c0.48154,-0.82489 1.37782,-1.24013 2.69162,-1.24013c1.31659,0 2.21287,0.41524 2.69441,1.24013c0.47876,0.82769 0.72092,2.39666 0.72092,4.70971m6.77499,-3.74547l0,12.47933l3.74378,0l0,-8.53042c1.517,-0.7608 2.66936,-1.13981 3.46265,-1.13981c0.45649,0 0.77102,0.1059 0.94917,0.31491c0.17536,0.2118 0.26443,0.59638 0.26443,1.15374l0,8.20158l3.71594,0l0,-9.36646c0,-1.13145 -0.29783,-1.99257 -0.89628,-2.58338c-0.59845,-0.5908 -1.46132,-0.8862 -2.59142,-0.8862c-1.75359,0 -3.53223,0.73572 -5.33593,2.20436l-0.27835,-1.84765l-3.03399,0zm22.60464,4.80725l-7.53488,0l0,2.45517l7.53488,0l0,-2.45517zm10.01218,7.89781c2.78069,0 4.71521,-0.64096 5.80355,-1.9229c1.08556,-1.28193 1.63112,-3.62842 1.63112,-7.03669c0,-3.40827 -0.54556,-5.75476 -1.63112,-7.03669c-1.08834,-1.28472 -3.02286,-1.92569 -5.80355,-1.92569c-2.1238,0 -4.3812,0.07803 -6.77499,0.22852l0,17.46772c2.39379,0.15049 4.65119,0.22573 6.77499,0.22573m0,-14.90943c1.2971,0 2.18781,0.41802 2.66657,1.25407c0.48154,0.83604 0.72092,2.39944 0.72092,4.69577c0,2.29355 -0.23938,3.85695 -0.72092,4.68184c-0.47876,0.82768 -1.36947,1.24013 -2.66657,1.24013c-0.37021,0 -0.88237,-0.00279 -1.52813,-0.01115c-0.65134,-0.00836 -1.11896,-0.01393 -1.40566,-0.01393l0,-11.82165l2.93379,-0.02508zm21.02362,8.82304c0.59845,-0.58244 0.89628,-1.45471 0.89628,-2.6196c-0.0167,-1.46865 -0.48711,-2.56108 -1.41401,-3.28007c-0.92689,-0.71621 -2.42719,-1.07571 -4.50088,-1.07571c-2.29359,0 -3.92471,0.49048 -4.89336,1.46865c-0.96865,0.97817 -1.45298,2.69205 -1.45298,5.13887c0,2.32978 0.49546,3.99907 1.49195,5.01347c0.9937,1.01161 2.661,1.51881 5.00469,1.51881c2.32699,0 4.13904,-0.31212 5.43614,-0.93915l-0.3535,-2.32699c-1.77029,0.18672 -3.32069,0.27868 -4.6512,0.27868c-0.99648,0 -1.70627,-0.15606 -2.13771,-0.46818c-0.42865,-0.31212 -0.70422,-0.92522 -0.82113,-1.83651l4.50089,0c1.33051,0 2.29637,-0.28983 2.89482,-0.87227m-6.86406,-3.67023c0.3535,-0.38179 1.0104,-0.57129 1.9707,-0.57129c0.81,0 1.36669,0.11426 1.67009,0.34278c0.3034,0.22851 0.45371,0.63817 0.45371,1.22898c0,0.42081 -0.08072,0.74129 -0.23938,0.96145c-0.16144,0.22016 -0.46763,0.32884 -0.92412,0.32884l-3.5378,0c0.0501,-1.14816 0.2533,-1.91175 0.6068,-2.29076m10.18754,-2.94844l0,12.47933l3.71872,0l0,-8.58337c1.17742,-0.72457 2.09875,-1.08686 2.75565,-1.08686c0.47041,0 0.81278,0.10869 1.02432,0.32885c0.20876,0.22015 0.31453,0.59916 0.31453,1.1398l0,8.20158l3.59069,0l0,-8.55829c0.70701,-0.43753 1.247,-0.73293 1.6172,-0.88621c0.37021,-0.15048 0.75989,-0.22573 1.1635,-0.22573c0.50659,0 0.85174,0.10869 1.03824,0.32885c0.18371,0.22015 0.27834,0.59916 0.27834,1.1398l0,8.20158l3.71595,0l0,-9.36646c0,-1.13145 -0.29505,-1.99257 -0.88515,-2.58338c-0.59009,-0.5908 -1.45019,-0.8862 -2.58028,-0.8862c-1.5671,0 -3.0841,0.67719 -4.55099,2.02601c-0.45371,-1.34882 -1.52535,-2.02601 -3.20935,-2.02601c-1.58659,0 -3.17039,0.72735 -4.75419,2.1765l-0.25329,-1.81979l-2.98389,0zm27.78748,2.58058c0.79329,0 1.32771,0.11148 1.60606,0.32885c0.27835,0.22016 0.42588,0.64932 0.44258,1.29029l0,0.55736l-4.45079,0c-1.19689,0 -2.13214,0.27868 -2.80575,0.83605c-0.6736,0.55736 -1.0104,1.33209 -1.0104,2.32977l0,1.26521c0,1.13144 0.37855,2.01208 1.13566,2.64468c0.75989,0.63261 1.73689,0.9503 2.93379,0.9503c1.82039,0 3.35409,-0.73571 4.60109,-2.20436l0.37855,1.9006l2.95884,0l0,-8.25453c0,-1.68602 -0.39525,-2.87041 -1.18854,-3.55597c-0.79051,-0.68277 -2.02916,-1.02554 -3.71595,-1.02554c-2.09039,0 -4.25594,0.20343 -6.49664,0.60752l0.3535,2.53321c2.1238,-0.13655 3.87739,-0.20344 5.258,-0.20344m-1.31381,4.43103l3.36245,0l0,1.74733c-1.06329,0.80818 -2.09875,1.21226 -3.10915,1.21226c-0.97979,0 -1.46689,-0.42917 -1.46689,-1.29029l0,-0.47933c0,-0.77752 0.4036,-1.17325 1.21359,-1.18997m10.06228,-7.01161l0,12.47933l3.74378,0l0,-8.53042c1.517,-0.7608 2.66936,-1.13981 3.46265,-1.13981c0.45371,0 0.77103,0.1059 0.94638,0.31491c0.17815,0.2118 0.26722,0.59638 0.26722,1.15374l0,8.20158l3.71594,0l0,-9.36646c0,-1.13145 -0.29783,-1.99257 -0.89628,-2.58338c-0.59844,-0.5908 -1.46411,-0.8862 -2.59142,-0.8862c-1.75359,0 -3.53223,0.73572 -5.33593,2.20436l-0.27834,-1.84765l-3.034,0zm23.3367,-5.24199l0,3.39155c0,0.81096 0.04175,1.68044 0.12804,2.60845c-1.09669,-0.74129 -2.4439,-1.11472 -4.04718,-1.11472c-1.6339,0 -2.83915,0.48212 -3.61574,1.44356c-0.77381,0.96145 -1.16071,2.6419 -1.16071,5.03856c0,2.19322 0.34793,3.85137 1.04658,4.97445c0.70144,1.1203 1.82597,1.68323 3.37637,1.68323c1.97348,0 3.55728,-0.71063 4.75418,-2.12633l0.3034,1.82257l2.95884,0l0,-17.72132l-3.74378,0zm-1.44185,14.71993c-0.3702,0.14491 -0.81555,0.21458 -1.33885,0.21458c-0.77659,0 -1.3138,-0.23966 -1.6172,-0.71899c-0.3034,-0.48212 -0.45649,-1.44078 -0.45649,-2.8732c0,-1.5021 0.15587,-2.49141 0.46762,-2.96238c0.31175,-0.47376 0.89072,-0.70785 1.73133,-0.70785c0.64298,0 1.52534,0.15885 2.65544,0.47933l0,5.77148c-0.5901,0.39015 -1.06886,0.6549 -1.44185,0.79703"/>
   <path stroke="null" fill-rule="nonzero" fill="rgb(0%,0%,0%)" id="svg_4" d="m67.20923,55.68382l2.13772,0l0,-51.36369l-2.13772,0l0,51.36369zm0,0"/>
   <g stroke="null" id="svg_5" clip-rule="nonzero" clip-path="url(#clip1)">
    <path stroke="null" fill-rule="nonzero" fill="rgb(17,221,165)" id="svg_6" d="m32.20419,3.25c-14.61048,0 -26.45419,11.85787 -26.45419,26.48584c0,14.62796 11.84371,26.48583 26.45419,26.48583c14.61049,0 26.45419,-11.85787 26.45419,-26.48583c0,-14.62797 -11.8437,-26.48584 -26.45419,-26.48584m17.09335,21.10172l-18.97498,18.99768c-0.3869,0.39015 -1.01875,0.39015 -1.40287,0l-2.80297,-2.83697c-0.3869,-0.38737 -1.01875,-1.02276 -1.40566,-1.4157l-6.52169,-6.86949c-0.19206,-0.19229 -0.29505,-0.46261 -0.29505,-0.72178c0,-0.2536 0.10299,-0.50163 0.29505,-0.69113l2.85864,-2.58058c0.19206,-0.20065 0.45092,-0.29819 0.707,-0.29819c0.25051,0.00278 0.50103,0.10311 0.69309,0.29819l6.47437,6.60752c0.38412,0.39573 1.01597,0.39573 1.40287,0l14.76915,-14.74501c0.38968,-0.39015 1.01597,-0.39015 1.40287,0l2.80297,2.83697c0.3869,0.39016 0.3869,1.02834 -0.00279,1.41849"/>
   </g>
   <path stroke="null" fill-rule="nonzero" fill="rgb(100%,100%,100%)" id="svg_7" d="m86.27507,162.66348l-12.15824,0l0,12.17278l12.15824,0l0,-12.17278zm0,0"/>
  </g>
 </g>
 <g>
  <title>Layer 2</title>
  <rect fill="none" y="0" x="0" height="100%" width="100%" id="backgroundrect"/>
 </g>
 <g>
  <title>background</title>
  <rect fill="none" id="canvas_background" height="62" width="243.79846" y="-1" x="-1"/>
 </g>
</svg>